<?xml version="1.0" encoding="utf-8"?>
<!-- Generator: Adobe Illustrator 16.0.0, SVG Export Plug-In . SVG Version: 6.00 Build 0)  -->
<!DOCTYPE svg PUBLIC "-//W3C//DTD SVG 1.1//EN" "http://www.w3.org/Graphics/SVG/1.1/DTD/svg11.dtd">
<svg version="1.1" id="Layer_1" xmlns="http://www.w3.org/2000/svg" xmlns:xlink="http://www.w3.org/1999/xlink" x="0px" y="0px"
	 width="100px" height="100px" viewBox="0 0 100 100" enable-background="new 0 0 100 100" xml:space="preserve">
<line fill="none" x1="-319.5" y1="-155.5" x2="-317.5" y2="-154.5"/>
<g>
	<path fill="#CCCCCC" d="M74.513,71.504C62.871,67.261,59.15,63.683,59.15,56.02c0-4.6,3.555-3.098,5.115-11.521
		c0.647-3.496,3.787-0.057,4.389-8.035c0-3.179-1.714-3.97-1.714-3.97s0.871-4.705,1.212-8.326C68.575,19.657,65.546,8,49.389,8
		C33.232,8,30.201,19.657,30.625,24.168c0.341,3.621,1.212,8.326,1.212,8.326s-1.714,0.791-1.714,3.97
		c0.6,7.978,3.739,4.54,4.387,8.035c1.562,8.423,5.115,6.921,5.115,11.521c0,7.663-3.719,11.241-15.36,15.484
		C12.587,75.76,5,80.098,5,83.058C5,86.016,5,93,5,93h44.389h44.389c0,0,0-6.984,0-9.942C93.777,80.098,86.19,75.76,74.513,71.504z"
		/>
</g>
</svg>
