<?xml version="1.0" encoding="utf-8"?>
<!-- Generator: Adobe Illustrator 16.0.0, SVG Export Plug-In . SVG Version: 6.00 Build 0)  -->
<!DOCTYPE svg PUBLIC "-//W3C//DTD SVG 1.1//EN" "http://www.w3.org/Graphics/SVG/1.1/DTD/svg11.dtd">
<svg version="1.1" id="Layer_1" xmlns="http://www.w3.org/2000/svg" xmlns:xlink="http://www.w3.org/1999/xlink" x="0px" y="0px"
	 width="100px" height="100px" viewBox="0 0 100 100" enable-background="new 0 0 100 100" xml:space="preserve">
<line fill="none" x1="-319.5" y1="-155.5" x2="-317.5" y2="-154.5"/>
<g>
	<path fill="#CCCCCC" d="M80.921,23.312c0-4.438-4.417-4.438-4.417-4.438H23.497c0,0-4.417,0-4.417,4.438v4.438h61.841V23.312z
		 M67.669,10H32.33c0,0-4.417,0-4.417,4.438h44.172C72.085,10,67.669,10,67.669,10z M89.754,27.75
		c-2.614-2.626-2.614-2.626-2.614-2.626v7.063H12.859v-7.063c0,0,0,0-2.614,2.626c-2.614,2.626-4.486,3.332-3.434,8.878
		c1.047,5.525,6.115,35.833,6.869,39.935c0.827,4.495,5.4,4.437,5.4,4.437h61.841c0,0,4.57,0.059,5.397-4.437
		c0.754-4.103,5.822-34.41,6.871-39.935C94.242,31.082,92.368,30.376,89.754,27.75z M67.667,51.713c0,0,0,4.438-4.417,4.438H36.749
		c-4.417,0-4.417-4.438-4.417-4.438v-8.875h6.185v7.1h22.955v-7.1h6.195V51.713z"/>
</g>
</svg>
